# xmcd
#
# Track frame offsets:
#	150
#	3669
#	8321
#	27100
#	50570
#	72237
#	92536
#	109920
#	128865
#	147053
#	165074
#	186072
#	204511
#	219824
#	238105
#	258102
#	273335
#	287037
#	303037
#	330696
#
# Disc length: 4461 seconds
#
# Revision: 1
# Processed by: cddbd v1.5.2PL0 Copyright (c) Steve Scherf et al.
# Submitted via: EasyCDDAExtractor 2010.6.0.0
#
DISCID=02116b14
DTITLE=Various Artist - Lupe Fiasco's The Cool
DYEAR=2007
DGENRE=Hip Hop/Rap
TTITLE0=Lupe Fiasco - Baba Says Cool For Thought
TTITLE1=Lupe Fiasco feat. Sarah Green and Gemstones - Free Chilly
TTITLE2=Lupe Fiasco - Go Go Gadget Flow
TTITLE3=Lupe Fiasco - The Coolest
TTITLE4=Lupe Fiasco feat. Matthew Santos - Superstar
TTITLE5=Lupe Fiasco - Paris, Tokyo
TTITLE6=Lupe Fiasco feat. Snoop Dogg and Pooh Bear - Hi-Definition
TTITLE7=Lupe Fiasco - Gold Watch
TTITLE8=Lupe Fiasco feat. Nikki Jean - Hip-Hop Saved My Life
TTITLE9=Lupe Fiasco feat. Sarah Green - Intruder Alert
TTITLE10=Lupe Fiasco - Streets On Fire
TTITLE11=Lupe Fiasco feat. Bishop G and Nikki Jean - Little Weapon
TTITLE12=Lupe Fiasco - Gotta Eat
TTITLE13=Lupe Fiasco feat. Gemstones and Graham Burris - Dumb It Down
TTITLE14=Lupe Fiasco feat. UNKLE - Hello/Goodbye (Uncool)
TTITLE15=Lupe Fiasco feat. Gemstones - The Die
TTITLE16=Lupe Fiasco - Put You On Game
TTITLE17=Lupe Fiasco feat. Matthew Santos - Fighters
TTITLE18=Lupe Fiasco feat. Gemstones - Go Baby
TTITLE19=Lupe Fiasco - Data
EXTD=YEAR: 2007
EXTT0=
EXTT1=
EXTT2=
EXTT3=
EXTT4=
EXTT5=
EXTT6=
EXTT7=
EXTT8=
EXTT9=
EXTT10=
EXTT11=
EXTT12=
EXTT13=
EXTT14=
EXTT15=
EXTT16=
EXTT17=
EXTT18=
EXTT19=
PLAYORDER=
